<svg viewBox="0 0 21 19" fill="none" xmlns="http://www.w3.org/2000/svg"><path d="M20.8271 7.02135H17.431L13.8631 1.07471C13.6861 0.77931 13.3021 0.682864 13.0055 0.860481C12.7095 1.0381 12.6137 1.42199 12.7913 1.71801L15.9733 7.02135H5.68104L8.86303 1.71797C9.04065 1.42194 8.94483 1.03806 8.64881 0.860439C8.35156 0.682822 7.96889 0.779268 7.79127 1.07466L4.22333 7.02131H0.827148V8.27132H2.18366L3.77148 16.7412C3.93748 17.628 4.71263 18.2713 5.61476 18.2713H16.0396C16.9417 18.2713 17.7168 17.628 17.8822 16.7418L19.4706 8.27132H20.8272C20.8271 8.27132 20.8271 7.02135 20.8271 7.02135ZM16.6536 16.5117C16.5986 16.8071 16.3404 17.0214 16.0395 17.0214H5.61476C5.31385 17.0214 5.0557 16.8071 5.00015 16.5111L3.45504 8.27132H18.1993L16.6536 16.5117Z" fill="white"></path></svg>